<svg width="1366" height="677" xmlns="http://www.w3.org/2000/svg"><g><path d="M-41.19511239230633,-120.37106313742697L-103.09041853062809,118.87586616910994L105.15537771396339,64.50729369185865Z" fill="#bd0a2a" stroke="#bd0a2a"></path><path d="M-41.19511239230633,-120.37106313742697L105.15537771396339,64.50729369185865L104.006869783625,-89.08273162320256Z" fill="#aa0b29" stroke="#aa0b29"></path><path d="M-41.19511239230633,-120.37106313742697L104.006869783625,-89.08273162320256L411.0977628082037,-89.92157779633999Z" fill="#a3212d" stroke="#a3212d"></path><path d="M-41.19511239230633,-120.37106313742697L411.0977628082037,-89.92157779633999L502.0672318339348,-94.68052385374904Z" fill="#ae423c" stroke="#ae423c"></path><path d="M-41.19511239230633,-120.37106313742697L502.0672318339348,-94.68052385374904L1218.357326472178,-117.78559335507452Z" fill="#ae786a" stroke="#ae786a"></path><path d="M-41.19511239230633,-120.37106313742697L1218.357326472178,-117.78559335507452L1392.7012137696147,-124.5302926003933Z" fill="#826e8b" stroke="#826e8b"></path><path d="M104.006869783625,-89.08273162320256L105.15537771396339,64.50729369185865L284.2489227466285,-73.7907946575433Z" fill="#c3222e" stroke="#c3222e"></path><path d="M104.006869783625,-89.08273162320256L284.2489227466285,-73.7907946575433L411.0977628082037,-89.92157779633999Z" fill="#b63b3a" stroke="#b63b3a"></path><path d="M284.2489227466285,-73.7907946575433L105.15537771396339,64.50729369185865L315.9456267300993,28.061310639604926Z" fill="#de3637" stroke="#de3637"></path><path d="M284.2489227466285,-73.7907946575433L315.9456267300993,28.061310639604926L411.0977628082037,-89.92157779633999Z" fill="#ca4e42" stroke="#ca4e42"></path><path d="M411.0977628082037,-89.92157779633999L315.9456267300993,28.061310639604926L567.3300605267286,27.161157187074423Z" fill="#dc6352" stroke="#dc6352"></path><path d="M411.0977628082037,-89.92157779633999L567.3300605267286,27.161157187074423L502.0672318339348,-94.68052385374904Z" fill="#c9705e" stroke="#c9705e"></path><path d="M502.0672318339348,-94.68052385374904L567.3300605267286,27.161157187074423L676.0249919816852,-80.25357593782246Z" fill="#cb7b6e" stroke="#cb7b6e"></path><path d="M502.0672318339348,-94.68052385374904L676.0249919816852,-80.25357593782246L1111.5560322906822,-109.46730419062078Z" fill="#a27891" stroke="#a27891"></path><path d="M502.0672318339348,-94.68052385374904L1111.5560322906822,-109.46730419062078L1218.357326472178,-117.78559335507452Z" fill="#756083" stroke="#756083"></path><path d="M676.0249919816852,-80.25357593782246L567.3300605267286,27.161157187074423L723.8360709138215,19.706490710377693Z" fill="#d97e7e" stroke="#d97e7e"></path><path d="M676.0249919816852,-80.25357593782246L723.8360709138215,19.706490710377693L815.0801608990878,-19.851769544184208Z" fill="#c77a91" stroke="#c77a91"></path><path d="M676.0249919816852,-80.25357593782246L815.0801608990878,-19.851769544184208L942.9778352100402,-84.93606878444552Z" fill="#a8738e" stroke="#a8738e"></path><path d="M676.0249919816852,-80.25357593782246L942.9778352100402,-84.93606878444552L1111.5560322906822,-109.46730419062078Z" fill="#846687" stroke="#846687"></path><path d="M815.0801608990878,-19.851769544184208L723.8360709138215,19.706490710377693L864.6231203433126,132.6337921153754Z" fill="#dc8890" stroke="#dc8890"></path><path d="M815.0801608990878,-19.851769544184208L864.6231203433126,132.6337921153754L1000.467267036438,93.6554728075862Z" fill="#d0898b" stroke="#d0898b"></path><path d="M815.0801608990878,-19.851769544184208L1000.467267036438,93.6554728075862L942.9778352100402,-84.93606878444552Z" fill="#ac6486" stroke="#ac6486"></path><path d="M942.9778352100402,-84.93606878444552L1000.467267036438,93.6554728075862L1107.720296541229,32.1882645227015Z" fill="#9f587c" stroke="#9f587c"></path><path d="M942.9778352100402,-84.93606878444552L1107.720296541229,32.1882645227015L1111.5560322906822,-109.46730419062078Z" fill="#784978" stroke="#784978"></path><path d="M1111.5560322906822,-109.46730419062078L1107.720296541229,32.1882645227015L1218.357326472178,-117.78559335507452Z" fill="#64346d" stroke="#64346d"></path><path d="M1218.357326472178,-117.78559335507452L1107.720296541229,32.1882645227015L1265.2519545704126,24.810114232823253Z" fill="#752767" stroke="#752767"></path><path d="M1218.357326472178,-117.78559335507452L1265.2519545704126,24.810114232823253L1392.7012137696147,-124.5302926003933Z" fill="#550e5a" stroke="#550e5a"></path><path d="M1392.7012137696147,-124.5302926003933L1265.2519545704126,24.810114232823253L1458.138251826167,62.76629939675331Z" fill="#6b0051" stroke="#6b0051"></path><path d="M1392.7012137696147,-124.5302926003933L1458.138251826167,62.76629939675331L1527.0395780168474,-100.06133462302387Z" fill="#500046" stroke="#500046"></path><path d="M1527.0395780168474,-100.06133462302387L1458.138251826167,62.76629939675331L1588.8504318427294,91.15294097922742Z" fill="#6d093e" stroke="#6d093e"></path><path d="M-103.09041853062809,118.87586616910994L-113.7851019948721,240.61337261460721L111.17457940243185,179.36544505879283Z" fill="#cb654b" stroke="#cb654b"></path><path d="M-103.09041853062809,118.87586616910994L111.17457940243185,179.36544505879283L105.15537771396339,64.50729369185865Z" fill="#da473b" stroke="#da473b"></path><path d="M105.15537771396339,64.50729369185865L111.17457940243185,179.36544505879283L257.3978491779417,116.45490383729339Z" fill="#ef603f" stroke="#ef603f"></path><path d="M105.15537771396339,64.50729369185865L257.3978491779417,116.45490383729339L315.9456267300993,28.061310639604926Z" fill="#f75338" stroke="#f75338"></path><path d="M257.3978491779417,116.45490383729339L111.17457940243185,179.36544505879283L236.59201808273792,223.60370703041553Z" fill="#f48c52" stroke="#f48c52"></path><path d="M257.3978491779417,116.45490383729339L236.59201808273792,223.60370703041553L425.8500735461712,233.94628495909274Z" fill="#fcb065" stroke="#fcb065"></path><path d="M257.3978491779417,116.45490383729339L425.8500735461712,233.94628495909274L315.9456267300993,28.061310639604926Z" fill="#fd9055" stroke="#fd9055"></path><path d="M315.9456267300993,28.061310639604926L425.8500735461712,233.94628495909274L567.3300605267286,27.161157187074423Z" fill="#ff955d" stroke="#ff955d"></path><path d="M567.3300605267286,27.161157187074423L425.8500735461712,233.94628495909274L562.4495933577418,184.87466881982982Z" fill="#ffc47c" stroke="#ffc47c"></path><path d="M567.3300605267286,27.161157187074423L562.4495933577418,184.87466881982982L723.8360709138215,19.706490710377693Z" fill="#ffa57b" stroke="#ffa57b"></path><path d="M723.8360709138215,19.706490710377693L562.4495933577418,184.87466881982982L805.4861898813397,170.54773354902864Z" fill="#f6be9a" stroke="#f6be9a"></path><path d="M723.8360709138215,19.706490710377693L805.4861898813397,170.54773354902864L864.6231203433126,132.6337921153754Z" fill="#e4ac9d" stroke="#e4ac9d"></path><path d="M864.6231203433126,132.6337921153754L805.4861898813397,170.54773354902864L961.0686031915247,320.58468631468713Z" fill="#d4dcb8" stroke="#d4dcb8"></path><path d="M864.6231203433126,132.6337921153754L961.0686031915247,320.58468631468713L993.1834561843425,193.04809838533401Z" fill="#c6d4b6" stroke="#c6d4b6"></path><path d="M864.6231203433126,132.6337921153754L993.1834561843425,193.04809838533401L1000.467267036438,93.6554728075862Z" fill="#c3a999" stroke="#c3a999"></path><path d="M1000.467267036438,93.6554728075862L993.1834561843425,193.04809838533401L1107.720296541229,32.1882645227015Z" fill="#b28588" stroke="#b28588"></path><path d="M1107.720296541229,32.1882645227015L993.1834561843425,193.04809838533401L1089.6523819025606,269.48456020094454Z" fill="#aca295" stroke="#aca295"></path><path d="M1107.720296541229,32.1882645227015L1089.6523819025606,269.48456020094454L1251.472929669544,181.21037140488625Z" fill="#a08b89" stroke="#a08b89"></path><path d="M1107.720296541229,32.1882645227015L1251.472929669544,181.21037140488625L1265.2519545704126,24.810114232823253Z" fill="#9b4b6b" stroke="#9b4b6b"></path><path d="M1265.2519545704126,24.810114232823253L1251.472929669544,181.21037140488625L1458.138251826167,62.76629939675331Z" fill="#92335f" stroke="#92335f"></path><path d="M1458.138251826167,62.76629939675331L1251.472929669544,181.21037140488625L1426.4787313342094,230.8216246124357Z" fill="#8d576c" stroke="#8d576c"></path><path d="M1458.138251826167,62.76629939675331L1426.4787313342094,230.8216246124357L1517.8653881326318,193.0147398635745Z" fill="#865a62" stroke="#865a62"></path><path d="M1458.138251826167,62.76629939675331L1517.8653881326318,193.0147398635745L1588.8504318427294,91.15294097922742Z" fill="#823d4e" stroke="#823d4e"></path><path d="M1588.8504318427294,91.15294097922742L1517.8653881326318,193.0147398635745L1619.3921214994043,377.4400578159839Z" fill="#80766b" stroke="#80766b"></path><path d="M-113.7851019948721,240.61337261460721L-118.68874026462436,573.9561584126204L-47.06544547341764,317.75523212738335Z" fill="#bc8092" stroke="#bc8092"></path><path d="M-113.7851019948721,240.61337261460721L-47.06544547341764,317.75523212738335L111.17457940243185,179.36544505879283Z" fill="#cf8069" stroke="#cf8069"></path><path d="M111.17457940243185,179.36544505879283L-47.06544547341764,317.75523212738335L81.64677950553596,391.4390166196972Z" fill="#dc8980" stroke="#dc8980"></path><path d="M111.17457940243185,179.36544505879283L81.64677950553596,391.4390166196972L236.59201808273792,223.60370703041553Z" fill="#ed9c74" stroke="#ed9c74"></path><path d="M236.59201808273792,223.60370703041553L81.64677950553596,391.4390166196972L243.78876753151417,397.6979190018028Z" fill="#f3a793" stroke="#f3a793"></path><path d="M236.59201808273792,223.60370703041553L243.78876753151417,397.6979190018028L433.02498213015497,355.94593254849315Z" fill="#fcc59f" stroke="#fcc59f"></path><path d="M236.59201808273792,223.60370703041553L433.02498213015497,355.94593254849315L425.8500735461712,233.94628495909274Z" fill="#fed591" stroke="#fed591"></path><path d="M425.8500735461712,233.94628495909274L433.02498213015497,355.94593254849315L471.5284307766706,327.2622096631676Z" fill="#ffe5af" stroke="#ffe5af"></path><path d="M425.8500735461712,233.94628495909274L471.5284307766706,327.2622096631676L562.4495933577418,184.87466881982982Z" fill="#ffee9d" stroke="#ffee9d"></path><path d="M562.4495933577418,184.87466881982982L471.5284307766706,327.2622096631676L684.6630929131061,272.9589131847024Z" fill="#fff9b4" stroke="#fff9b4"></path><path d="M562.4495933577418,184.87466881982982L684.6630929131061,272.9589131847024L805.4861898813397,170.54773354902864Z" fill="#f7eeb3" stroke="#f7eeb3"></path><path d="M684.6630929131061,272.9589131847024L471.5284307766706,327.2622096631676L617.3630868270993,400.3510493785143Z" fill="#fffcd2" stroke="#fffcd2"></path><path d="M684.6630929131061,272.9589131847024L617.3630868270993,400.3510493785143L863.6066743265837,365.4496308043599Z" fill="#f3faf1" stroke="#f3faf1"></path><path d="M684.6630929131061,272.9589131847024L863.6066743265837,365.4496308043599L805.4861898813397,170.54773354902864Z" fill="#e7f5da" stroke="#e7f5da"></path><path d="M805.4861898813397,170.54773354902864L863.6066743265837,365.4496308043599L961.0686031915247,320.58468631468713Z" fill="#d4ebdc" stroke="#d4ebdc"></path><path d="M993.1834561843425,193.04809838533401L961.0686031915247,320.58468631468713L1089.6523819025606,269.48456020094454Z" fill="#b6d1c3" stroke="#b6d1c3"></path><path d="M1089.6523819025606,269.48456020094454L961.0686031915247,320.58468631468713L1093.9176688436419,338.9099933579564Z" fill="#afcad5" stroke="#afcad5"></path><path d="M1089.6523819025606,269.48456020094454L1093.9176688436419,338.9099933579564L1328.8877901155502,322.5254496652633Z" fill="#9eadc6" stroke="#9eadc6"></path><path d="M1089.6523819025606,269.48456020094454L1328.8877901155502,322.5254496652633L1251.472929669544,181.21037140488625Z" fill="#9a9fa9" stroke="#9a9fa9"></path><path d="M1251.472929669544,181.21037140488625L1328.8877901155502,322.5254496652633L1426.4787313342094,230.8216246124357Z" fill="#918295" stroke="#918295"></path><path d="M1426.4787313342094,230.8216246124357L1328.8877901155502,322.5254496652633L1479.2199850827456,407.4697845429182Z" fill="#8b80ab" stroke="#8b80ab"></path><path d="M1426.4787313342094,230.8216246124357L1479.2199850827456,407.4697845429182L1517.8653881326318,193.0147398635745Z" fill="#868092" stroke="#868092"></path><path d="M1517.8653881326318,193.0147398635745L1479.2199850827456,407.4697845429182L1619.3921214994043,377.4400578159839Z" fill="#80809c" stroke="#80809c"></path><path d="M-47.06544547341764,317.75523212738335L-118.68874026462436,573.9561584126204L35.68923284299672,547.06537803635Z" fill="#966c90" stroke="#966c90"></path><path d="M-47.06544547341764,317.75523212738335L35.68923284299672,547.06537803635L81.64677950553596,391.4390166196972Z" fill="#c28493" stroke="#c28493"></path><path d="M81.64677950553596,391.4390166196972L35.68923284299672,547.06537803635L210.05897473543882,523.5652906168252Z" fill="#b07e90" stroke="#b07e90"></path><path d="M81.64677950553596,391.4390166196972L210.05897473543882,523.5652906168252L243.78876753151417,397.6979190018028Z" fill="#d5a399" stroke="#d5a399"></path><path d="M243.78876753151417,397.6979190018028L210.05897473543882,523.5652906168252L315.81496582366526,490.52461981773376Z" fill="#cba8a0" stroke="#cba8a0"></path><path d="M243.78876753151417,397.6979190018028L315.81496582366526,490.52461981773376L433.02498213015497,355.94593254849315Z" fill="#eaccab" stroke="#eaccab"></path><path d="M433.02498213015497,355.94593254849315L315.81496582366526,490.52461981773376L528.3102611359209,512.2804030682892Z" fill="#d9d8b9" stroke="#d9d8b9"></path><path d="M433.02498213015497,355.94593254849315L528.3102611359209,512.2804030682892L471.5284307766706,327.2622096631676Z" fill="#f3ecc4" stroke="#f3ecc4"></path><path d="M471.5284307766706,327.2622096631676L528.3102611359209,512.2804030682892L617.3630868270993,400.3510493785143Z" fill="#edf5d0" stroke="#edf5d0"></path><path d="M617.3630868270993,400.3510493785143L528.3102611359209,512.2804030682892L693.9362587686628,576.2775206845254Z" fill="#c3e4da" stroke="#c3e4da"></path><path d="M617.3630868270993,400.3510493785143L693.9362587686628,576.2775206845254L863.6066743265837,365.4496308043599Z" fill="#d0f4f6" stroke="#d0f4f6"></path><path d="M863.6066743265837,365.4496308043599L693.9362587686628,576.2775206845254L868.9876391272992,578.2762674987316Z" fill="#a1d2f1" stroke="#a1d2f1"></path><path d="M863.6066743265837,365.4496308043599L868.9876391272992,578.2762674987316L929.5923135895282,490.25866948999465Z" fill="#9ed6f0" stroke="#9ed6f0"></path><path d="M863.6066743265837,365.4496308043599L929.5923135895282,490.25866948999465L961.0686031915247,320.58468631468713Z" fill="#c1e4f0" stroke="#c1e4f0"></path><path d="M961.0686031915247,320.58468631468713L929.5923135895282,490.25866948999465L1093.9176688436419,338.9099933579564Z" fill="#b3d6e8" stroke="#b3d6e8"></path><path d="M1093.9176688436419,338.9099933579564L929.5923135895282,490.25866948999465L1080.6152847781777,569.221764318645Z" fill="#85bfe2" stroke="#85bfe2"></path><path d="M1093.9176688436419,338.9099933579564L1080.6152847781777,569.221764318645L1230.8772923704237,575.854465495795Z" fill="#659cd4" stroke="#659cd4"></path><path d="M1093.9176688436419,338.9099933579564L1230.8772923704237,575.854465495795L1328.8877901155502,322.5254496652633Z" fill="#88a1cd" stroke="#88a1cd"></path><path d="M1328.8877901155502,322.5254496652633L1230.8772923704237,575.854465495795L1402.408742615953,540.4656443092972Z" fill="#5e73be" stroke="#5e73be"></path><path d="M1328.8877901155502,322.5254496652633L1402.408742615953,540.4656443092972L1479.2199850827456,407.4697845429182Z" fill="#7580b6" stroke="#7580b6"></path><path d="M1479.2199850827456,407.4697845429182L1402.408742615953,540.4656443092972L1578.9810530282557,565.6083092093468Z" fill="#4561a5" stroke="#4561a5"></path><path d="M1479.2199850827456,407.4697845429182L1578.9810530282557,565.6083092093468L1619.3921214994043,377.4400578159839Z" fill="#5c78a2" stroke="#5c78a2"></path><path d="M1619.3921214994043,377.4400578159839L1578.9810530282557,565.6083092093468L1579.932950399816,706.8894722498953Z" fill="#2b488b" stroke="#2b488b"></path><path d="M1619.3921214994043,377.4400578159839L1579.932950399816,706.8894722498953L1574.185424381867,838.4803192410618Z" fill="#181171" stroke="#181171"></path><path d="M-118.68874026462436,573.9561584126204L-119.97072494588792,679.9360604770482L35.68923284299672,547.06537803635Z" fill="#652970" stroke="#652970"></path><path d="M35.68923284299672,547.06537803635L-119.97072494588792,679.9360604770482L93.1487056799233,767.4392043147236Z" fill="#67035d" stroke="#67035d"></path><path d="M35.68923284299672,547.06537803635L93.1487056799233,767.4392043147236L130.82406805828214,633.4390049055219Z" fill="#7b1c63" stroke="#7b1c63"></path><path d="M35.68923284299672,547.06537803635L130.82406805828214,633.4390049055219L210.05897473543882,523.5652906168252Z" fill="#92567b" stroke="#92567b"></path><path d="M210.05897473543882,523.5652906168252L130.82406805828214,633.4390049055219L168.0382033623755,688.3954397588968Z" fill="#8e4372" stroke="#8e4372"></path><path d="M210.05897473543882,523.5652906168252L168.0382033623755,688.3954397588968L327.4250729754567,733.8455701991916Z" fill="#8f406f" stroke="#8f406f"></path><path d="M210.05897473543882,523.5652906168252L327.4250729754567,733.8455701991916L315.81496582366526,490.52461981773376Z" fill="#9f7489" stroke="#9f7489"></path><path d="M315.81496582366526,490.52461981773376L327.4250729754567,733.8455701991916L475.9204991720617,636.7923468723893Z" fill="#9b7488" stroke="#9b7488"></path><path d="M315.81496582366526,490.52461981773376L475.9204991720617,636.7923468723893L528.3102611359209,512.2804030682892Z" fill="#acaeab" stroke="#acaeab"></path><path d="M528.3102611359209,512.2804030682892L475.9204991720617,636.7923468723893L693.9362587686628,576.2775206845254Z" fill="#a5b1ba" stroke="#a5b1ba"></path><path d="M693.9362587686628,576.2775206845254L475.9204991720617,636.7923468723893L651.9655452948064,728.5878097917885Z" fill="#978bad" stroke="#978bad"></path><path d="M693.9362587686628,576.2775206845254L651.9655452948064,728.5878097917885L842.369829537347,697.4395620077848Z" fill="#857bc2" stroke="#857bc2"></path><path d="M693.9362587686628,576.2775206845254L842.369829537347,697.4395620077848L868.9876391272992,578.2762674987316Z" fill="#8193d1" stroke="#8193d1"></path><path d="M868.9876391272992,578.2762674987316L842.369829537347,697.4395620077848L961.4719496760517,670.4520808439702Z" fill="#6774c2" stroke="#6774c2"></path><path d="M868.9876391272992,578.2762674987316L961.4719496760517,670.4520808439702L929.5923135895282,490.25866948999465Z" fill="#6f9ad4" stroke="#6f9ad4"></path><path d="M929.5923135895282,490.25866948999465L961.4719496760517,670.4520808439702L1080.6152847781777,569.221764318645Z" fill="#5f8fce" stroke="#5f8fce"></path><path d="M1080.6152847781777,569.221764318645L961.4719496760517,670.4520808439702L1066.1429137084633,628.7925307732075Z" fill="#4e69bb" stroke="#4e69bb"></path><path d="M1080.6152847781777,569.221764318645L1066.1429137084633,628.7925307732075L1230.8772923704237,575.854465495795Z" fill="#4467ba" stroke="#4467ba"></path><path d="M1230.8772923704237,575.854465495795L1066.1429137084633,628.7925307732075L1227.4704904854298,713.6977345123887Z" fill="#373ea5" stroke="#373ea5"></path><path d="M1230.8772923704237,575.854465495795L1227.4704904854298,713.6977345123887L1388.073025709018,664.1857323981822Z" fill="#2c1b94" stroke="#2c1b94"></path><path d="M1230.8772923704237,575.854465495795L1388.073025709018,664.1857323981822L1402.408742615953,540.4656443092972Z" fill="#32309e" stroke="#32309e"></path><path d="M1402.408742615953,540.4656443092972L1388.073025709018,664.1857323981822L1578.9810530282557,565.6083092093468Z" fill="#293090" stroke="#293090"></path><path d="M1578.9810530282557,565.6083092093468L1388.073025709018,664.1857323981822L1579.932950399816,706.8894722498953Z" fill="#1a0e79" stroke="#1a0e79"></path><path d="M-119.97072494588792,679.9360604770482L-90.80786291509867,806.804203139618L93.1487056799233,767.4392043147236Z" fill="#4d0043" stroke="#4d0043"></path><path d="M130.82406805828214,633.4390049055219L93.1487056799233,767.4392043147236L168.0382033623755,688.3954397588968Z" fill="#7a1a55" stroke="#7a1a55"></path><path d="M168.0382033623755,688.3954397588968L93.1487056799233,767.4392043147236L233.994626943022,775.6124930363148Z" fill="#75224b" stroke="#75224b"></path><path d="M168.0382033623755,688.3954397588968L233.994626943022,775.6124930363148L327.4250729754567,733.8455701991916Z" fill="#803557" stroke="#803557"></path><path d="M327.4250729754567,733.8455701991916L233.994626943022,775.6124930363148L428.3450555149466,824.992717243731Z" fill="#7d4c54" stroke="#7d4c54"></path><path d="M327.4250729754567,733.8455701991916L428.3450555149466,824.992717243731L475.9204991720617,636.7923468723893Z" fill="#855f6e" stroke="#855f6e"></path><path d="M475.9204991720617,636.7923468723893L428.3450555149466,824.992717243731L542.7674871962517,773.0682880617678Z" fill="#836d78" stroke="#836d78"></path><path d="M475.9204991720617,636.7923468723893L542.7674871962517,773.0682880617678L651.9655452948064,728.5878097917885Z" fill="#89788f" stroke="#89788f"></path><path d="M651.9655452948064,728.5878097917885L542.7674871962517,773.0682880617678L696.4307022280991,869.7743540816009Z" fill="#7f7f86" stroke="#7f7f86"></path><path d="M651.9655452948064,728.5878097917885L696.4307022280991,869.7743540816009L823.8046823814511,845.577189847827Z" fill="#737b94" stroke="#737b94"></path><path d="M651.9655452948064,728.5878097917885L823.8046823814511,845.577189847827L842.369829537347,697.4395620077848Z" fill="#6c77a9" stroke="#6c77a9"></path><path d="M842.369829537347,697.4395620077848L823.8046823814511,845.577189847827L961.4719496760517,670.4520808439702Z" fill="#596ca8" stroke="#596ca8"></path><path d="M961.4719496760517,670.4520808439702L823.8046823814511,845.577189847827L1008.6327866278589,866.3894220348448Z" fill="#486292" stroke="#486292"></path><path d="M961.4719496760517,670.4520808439702L1008.6327866278589,866.3894220348448L1095.2305037900805,805.6280639860779Z" fill="#35508d" stroke="#35508d"></path><path d="M961.4719496760517,670.4520808439702L1095.2305037900805,805.6280639860779L1066.1429137084633,628.7925307732075Z" fill="#3d4ca2" stroke="#3d4ca2"></path><path d="M1066.1429137084633,628.7925307732075L1095.2305037900805,805.6280639860779L1227.4704904854298,713.6977345123887Z" fill="#2b3894" stroke="#2b3894"></path><path d="M1227.4704904854298,713.6977345123887L1095.2305037900805,805.6280639860779L1288.665872309357,819.8178378492594Z" fill="#1c2577" stroke="#1c2577"></path><path d="M1227.4704904854298,713.6977345123887L1288.665872309357,819.8178378492594L1388.073025709018,664.1857323981822Z" fill="#1a0c79" stroke="#1a0c79"></path><path d="M1388.073025709018,664.1857323981822L1288.665872309357,819.8178378492594L1403.501243982464,846.3238926418126Z" fill="#0f0064" stroke="#0f0064"></path><path d="M1388.073025709018,664.1857323981822L1403.501243982464,846.3238926418126L1579.932950399816,706.8894722498953Z" fill="#0c0064" stroke="#0c0064"></path><path d="M1579.932950399816,706.8894722498953L1403.501243982464,846.3238926418126L1574.185424381867,838.4803192410618Z" fill="#02004b" stroke="#02004b"></path><path d="M-90.80786291509867,806.804203139618L696.4307022280991,869.7743540816009L428.3450555149466,824.992717243731Z" fill="#7e5045" stroke="#7e5045"></path><path d="M-90.80786291509867,806.804203139618L428.3450555149466,824.992717243731L233.994626943022,775.6124930363148Z" fill="#73293c" stroke="#73293c"></path><path d="M-90.80786291509867,806.804203139618L233.994626943022,775.6124930363148L93.1487056799233,767.4392043147236Z" fill="#630f3a" stroke="#630f3a"></path><path d="M428.3450555149466,824.992717243731L696.4307022280991,869.7743540816009L542.7674871962517,773.0682880617678Z" fill="#7f786e" stroke="#7f786e"></path><path d="M696.4307022280991,869.7743540816009L1008.6327866278589,866.3894220348448L823.8046823814511,845.577189847827Z" fill="#5b7086" stroke="#5b7086"></path><path d="M1008.6327866278589,866.3894220348448L1574.185424381867,838.4803192410618L1403.501243982464,846.3238926418126Z" fill="#120552" stroke="#120552"></path><path d="M1008.6327866278589,866.3894220348448L1403.501243982464,846.3238926418126L1288.665872309357,819.8178378492594Z" fill="#191d60" stroke="#191d60"></path><path d="M1008.6327866278589,866.3894220348448L1288.665872309357,819.8178378492594L1095.2305037900805,805.6280639860779Z" fill="#223771" stroke="#223771"></path></g></svg>